<!-- Generated by IcoMoon.io -->
<svg version="1.1" xmlns="http://www.w3.org/2000/svg" width="102" height="32" viewBox="0 0 102 32">
<title>ibw</title>
<path fill="#4d4d4d" d="M54.4 8.010c-0.934 2.007-6.539 14.092-7.076 15.185-0.954 1.968-3.041 6.301-3.22 6.519h-1.948c-1.59-3.379-2.902-6.937-4.651-10.534-1.292 3.717-2.723 7.135-3.975 10.554h-2.425c-0.735-1.431-1.431-2.981-2.325-4.432-1.232-2.027-5.068-9.6-6.122-11.13-1.272-1.888-3.001-3.28-5.406-3.856-2.564-0.616-4.671-0.358-6.917 0.914-2.186 1.093-3.339 4.79-3.339 4.79l-1.63 0.079v-2.803c0 0 0.020-7.394 0.020-11.15h2.047v9.024c0.537-0.477 2.345-1.789 2.763-2.027 2.067-1.232 4.154-1.411 6.499-1.153 1.193 0.139 2.425 0.576 3.498 1.133 1.789 0.914 3.279 2.206 4.253 4.035 1.113 2.087 2.266 4.154 3.478 6.181 0.894 1.53 4.075 7.374 4.293 7.771 1.968-4.432 3.319-8.964 5.267-13.535 2.047 4.691 3.935 9.222 5.883 13.953 0.954-2.266 7.255-16.040 8.845-19.498h2.186z"></path>
<path fill="#4d4d4d" d="M25.441 23.394c-0.795 1.451-1.868 2.822-3.12 3.796-1.193 0.934-2.504 1.67-4.273 2.186-0.954 0.238-2.147 0.537-3.478 0.398-2.445-0.258-4.611-1.113-6.499-2.703-1.689-1.411-2.604-3.379-3.697-5.227-0.795-1.332-2.564-5.128-2.743-5.287v-8.586h1.968v7.612c0.179 0.716 2.087 4.214 2.842 5.565 0.815 1.431 1.59 2.862 2.822 4.035 1.829 1.749 3.955 2.663 6.42 2.465 2.783-0.219 5.983-2.405 7.116-3.876s1.411-1.948 1.411-1.948c0.636 0.835 0.835 1.034 1.232 1.57z"></path>
<path fill="#4d4d4d" d="M3.657 29.734c-0.735 0-1.352 0-2.007 0 0-2.763 0-5.506 0-8.388 0.716 1.232 1.352 2.325 2.007 3.439 0 1.57 0 3.18 0 4.949z"></path>
<path fill="#4d4d4d" d="M1.59 5.565h1.988v1.988h-1.988v-1.988z"></path>
<path fill="#4d4d4d" d="M55.692 23.712c-0.636-0.656-1.53-0.974-2.643-0.974s-2.007 0.318-2.643 0.974c-0.656 0.656-0.974 1.53-0.974 2.663s0.318 2.027 0.954 2.663c0.636 0.656 1.53 0.974 2.643 0.974s2.007-0.318 2.643-0.974c0.636-0.656 0.974-1.53 0.974-2.663s-0.318-2.027-0.954-2.663zM54.599 28.343c-0.378 0.477-0.894 0.716-1.57 0.716s-1.193-0.238-1.57-0.716c-0.378-0.477-0.557-1.133-0.557-1.968s0.199-1.491 0.557-1.968c0.378-0.477 0.894-0.716 1.57-0.716s1.193 0.238 1.57 0.716c0.378 0.477 0.557 1.133 0.557 1.968s-0.179 1.491-0.557 1.968z"></path>
<path fill="#4d4d4d" d="M65.232 22.897v1.968h-1.053v-0.974c-0.199-0.040-0.398-0.060-0.557-0.060-0.537 0-0.994 0.119-1.391 0.338s-0.815 0.596-1.252 1.133v4.512h-1.391v-6.937h1.391v1.312c0.696-0.974 1.65-1.451 2.842-1.451 0.398 0 0.875 0.060 1.411 0.159z"></path>
<path fill="#4d4d4d" d="M70.678 26.017l3.041-3.12h-1.511l-3.22 3.319 3.617 3.637h1.868l-3.796-3.836z"></path>
<path fill="#4d4d4d" d="M67.617 19.737h1.391v10.097h-1.391v-10.097z"></path>
<path fill="#4d4d4d" d="M81.829 23.712c-0.636-0.656-1.53-0.974-2.643-0.974s-2.007 0.318-2.643 0.974c-0.636 0.656-0.974 1.53-0.974 2.663s0.318 2.027 0.974 2.663c0.636 0.656 1.53 0.974 2.643 0.974 1.133 0 2.007-0.318 2.643-0.974s0.974-1.53 0.974-2.663c0-1.133-0.318-2.027-0.974-2.663zM80.755 28.343c-0.378 0.477-0.894 0.716-1.57 0.716s-1.193-0.238-1.57-0.716c-0.378-0.477-0.557-1.133-0.557-1.968s0.199-1.491 0.557-1.968c0.378-0.477 0.894-0.716 1.57-0.716s1.193 0.238 1.57 0.716c0.378 0.477 0.557 1.133 0.557 1.968s-0.179 1.491-0.557 1.968z"></path>
<path fill="#4d4d4d" d="M90.971 22.897v6.937h-1.391v-1.312c-0.636 0.974-1.511 1.471-2.624 1.471-1.451 0-2.186-0.775-2.186-2.345v-4.75h1.391v4.412c0 0.537 0.099 0.934 0.278 1.153s0.497 0.338 0.934 0.338c0.696 0 1.431-0.457 2.186-1.371v-4.532h1.411z"></path>
<path fill="#4d4d4d" d="M100.035 28.88v0.954c-0.696 0.119-1.371 0.159-2.027 0.159-1.133 0-1.908-0.179-2.325-0.557s-0.616-1.073-0.616-2.087v-3.359h-1.908v-0.934h1.908v-1.491h1.391v1.491h3.399v0.954h-3.399v3.558c0 0.398 0.020 0.676 0.079 0.815s0.179 0.278 0.358 0.398c0.318 0.199 0.795 0.298 1.391 0.298 0.596-0.020 1.173-0.079 1.749-0.199z"></path>
</svg>
