<svg aria-hidden="true" style="position: absolute; width: 0; height: 0; overflow: hidden;" version="1.1" xmlns="http://www.w3.org/2000/svg" xmlns:xlink="http://www.w3.org/1999/xlink">
<defs>
<symbol id="icon-cup" viewBox="0 0 32 32">
<path d="M28.207 4.877c-0.096-0.096-0.223-0.159-0.351-0.159h-4.845v-2.231c0-0.255-0.223-0.478-0.478-0.478h-13.61c-0.255 0-0.478 0.223-0.478 0.478v2.231h-4.972c-0.127 0-0.255 0.064-0.351 0.159s-0.127 0.223-0.127 0.351c0 0.096 0.096 2.135 0.829 4.494 1.020 3.155 2.741 5.386 5.036 6.406 0.765 2.55 2.518 4.558 4.717 5.355v0.096c0 2.645-2.008 4.749-4.59 4.749-0.255 0-0.478 0.223-0.478 0.478v2.709c0 0.255 0.223 0.478 0.478 0.478h13.546c0.255 0 0.478-0.223 0.478-0.478v-2.709c0-0.255-0.223-0.478-0.478-0.478-2.614 0-4.749-2.135-4.749-4.749v-0.064c2.295-0.797 4.080-2.837 4.845-5.45 2.199-1.052 3.888-3.251 4.877-6.343 0.765-2.359 0.829-4.43 0.829-4.494 0.032-0.128-0.032-0.255-0.128-0.351zM3.984 5.673h4.462v7.649c0 0.542 0.032 1.052 0.127 1.562-3.633-2.167-4.43-7.554-4.59-9.211zM22.056 27.251v1.753h-12.59v-1.753c2.805-0.223 4.972-2.55 5.036-5.514 0.382 0.064 0.797 0.128 1.211 0.128 0.382 0 0.765-0.032 1.116-0.096 0.128 2.9 2.39 5.259 5.227 5.482zM16.988 20.781c-0.414 0.096-0.829 0.159-1.243 0.159-0.478 0-0.956-0.064-1.402-0.191-0.096-0.032-0.255-0.096-0.319-0.096-2.645-0.892-4.622-3.825-4.622-7.299v-10.359h12.653v10.359c0 3.474-1.976 6.406-4.653 7.299zM22.916 14.821c0.064-0.478 0.128-0.988 0.128-1.498v-7.649h4.335c-0.159 1.657-0.924 6.884-4.462 9.147z"></path>
<path d="M20.335 8.701l-2.614-0.382-1.179-2.39c-0.128-0.255-0.414-0.446-0.701-0.446 0 0 0 0 0 0-0.287 0-0.574 0.159-0.701 0.446l-1.179 2.39-2.614 0.382c-0.287 0.032-0.542 0.255-0.637 0.542s-0.032 0.606 0.191 0.797l1.912 1.849-0.446 2.614c-0.064 0.287 0.064 0.574 0.319 0.765 0.127 0.096 0.287 0.159 0.478 0.159 0.127 0 0.255-0.032 0.351-0.096l2.422-1.211 2.295 1.211c0.255 0.127 0.574 0.127 0.829-0.064s0.351-0.478 0.319-0.765l-0.446-2.614 1.912-1.849c0.223-0.223 0.287-0.51 0.191-0.797-0.159-0.287-0.382-0.51-0.701-0.542zM18.040 11.379c-0.128 0.096-0.159 0.255-0.128 0.414l0.446 2.518-2.199-1.147c-0.128-0.064-0.287-0.064-0.446 0l-2.359 1.179 0.446-2.55c0.032-0.159-0.032-0.319-0.127-0.414l-1.817-1.785 2.518-0.382c0.159-0.032 0.287-0.127 0.351-0.255l1.116-2.295 1.116 2.295c0.064 0.127 0.191 0.255 0.351 0.255l2.518 0.382-1.785 1.785z"></path>
</symbol>
<symbol id="icon-barbell" viewBox="0 0 32 32">
<path d="M28.008 6.407l-4.763-3.981c-0.097-0.082-0.225-0.121-0.35-0.11s-0.244 0.072-0.325 0.17l-2.065 2.472-1.559-1.303c-0.204-0.17-0.505-0.142-0.675 0.061l-3.055 3.658c-0.081 0.097-0.121 0.223-0.11 0.35s0.072 0.243 0.17 0.325l3.941 3.292-7.361 8.81-3.942-3.294c-0.098-0.081-0.224-0.121-0.35-0.11s-0.243 0.073-0.325 0.17l-3.056 3.657c-0.17 0.203-0.143 0.505 0.060 0.675l1.559 1.303-1.929 2.309c-0.081 0.098-0.121 0.223-0.11 0.35s0.072 0.243 0.17 0.325l4.764 3.981c0.087 0.072 0.195 0.111 0.307 0.111 0.014 0 0.028-0.001 0.043-0.002 0.127-0.011 0.243-0.073 0.325-0.17l1.929-2.309 1.574 1.315c0.087 0.072 0.195 0.111 0.307 0.111 0.014 0 0.028-0.001 0.043-0.002 0.127-0.011 0.243-0.073 0.325-0.17l3.056-3.657c0.17-0.203 0.142-0.505-0.060-0.675l-3.956-3.306 7.361-8.81 3.957 3.306c0.087 0.072 0.195 0.111 0.307 0.111 0.014 0 0.028-0.001 0.043-0.002 0.127-0.011 0.244-0.072 0.325-0.17l3.055-3.658c0.17-0.203 0.142-0.505-0.060-0.675l-1.574-1.315 2.064-2.471c0.169-0.203 0.142-0.505-0.061-0.675zM8.946 28.474l-4.029-3.366 1.622-1.941 4.029 3.366-1.622 1.941zM13.124 27.42l-1.551-1.296c-0.007-0.007-0.013-0.015-0.021-0.021s-0.017-0.011-0.025-0.017l-4.721-3.945c-0.006-0.006-0.011-0.013-0.018-0.019s-0.015-0.009-0.022-0.015l-1.54-1.286 2.441-2.922 7.898 6.599-2.442 2.922zM24.157 14.219l-7.899-6.598 2.441-2.922 7.899 6.598-2.441 2.922zM25.27 8.939l-4.029-3.366 1.758-2.104 4.028 3.367-1.757 2.103z"></path>
</symbol>
<symbol id="icon-timetable" viewBox="0 0 32 32">
<path d="M25.591 4.546h-6.183v-1.142c0-0.265-0.215-0.479-0.479-0.479h-5.914c-0.265 0-0.479 0.214-0.479 0.479v1.142h-6.183c-0.265 0-0.479 0.214-0.479 0.479v23.515c0 0.265 0.214 0.479 0.479 0.479h19.238c0.265 0 0.479-0.215 0.479-0.479v-23.515c-0-0.265-0.215-0.479-0.479-0.479zM13.494 3.883h4.956v1.933h-4.956v-1.933zM25.111 28.061h-18.28v-22.557h5.704v0.79c0 0.265 0.214 0.479 0.479 0.479h5.914c0.265 0 0.479-0.214 0.479-0.479v-0.79h5.704v22.557z"></path>
<path d="M10.414 11.931h-1.851c-0.265 0-0.479 0.214-0.479 0.479s0.214 0.479 0.479 0.479h1.851c0.265 0 0.479-0.214 0.479-0.479s-0.214-0.479-0.479-0.479z"></path>
<path d="M12.216 12.411c0 0.265 0.214 0.479 0.479 0.479h10.686c0.265 0 0.479-0.214 0.479-0.479s-0.215-0.479-0.479-0.479h-10.686c-0.264 0-0.479 0.215-0.479 0.479z"></path>
<path d="M10.414 16.209h-1.851c-0.265 0-0.479 0.215-0.479 0.479s0.214 0.479 0.479 0.479h1.851c0.265 0 0.479-0.215 0.479-0.479s-0.214-0.479-0.479-0.479z"></path>
<path d="M23.381 16.209h-10.686c-0.265 0-0.479 0.215-0.479 0.479s0.214 0.479 0.479 0.479h10.686c0.265 0 0.479-0.215 0.479-0.479s-0.215-0.479-0.479-0.479z"></path>
<path d="M10.414 20.484h-1.851c-0.265 0-0.479 0.215-0.479 0.479s0.214 0.479 0.479 0.479h1.851c0.265 0 0.479-0.215 0.479-0.479s-0.214-0.479-0.479-0.479z"></path>
<path d="M23.381 20.484h-10.686c-0.265 0-0.479 0.215-0.479 0.479s0.214 0.479 0.479 0.479h10.686c0.265 0 0.479-0.215 0.479-0.479s-0.215-0.479-0.479-0.479z"></path>
</symbol>
<symbol id="icon-clock" viewBox="0 0 32 32">
<path d="M15.938 5.426c-5.917 0-10.73 4.814-10.73 10.73s4.814 10.73 10.73 10.73c5.917 0 10.731-4.814 10.731-10.73s-4.814-10.73-10.731-10.73zM15.938 25.736c-5.283 0-9.58-4.297-9.58-9.58s4.298-9.58 9.58-9.58c5.283 0 9.58 4.298 9.58 9.58s-4.297 9.58-9.58 9.58z"></path>
<path d="M18.65 14.413l-2.314 2.314v-8.232c0-0.318-0.258-0.575-0.575-0.575s-0.575 0.257-0.575 0.575v9.62c0 0.038 0.004 0.076 0.011 0.113 0.003 0.016 0.009 0.031 0.014 0.047 0.006 0.020 0.011 0.041 0.019 0.060s0.019 0.036 0.029 0.055c0.008 0.015 0.015 0.030 0.024 0.045 0.042 0.063 0.097 0.117 0.16 0.16 0.012 0.008 0.025 0.013 0.037 0.020 0.020 0.011 0.040 0.024 0.062 0.033 0.017 0.007 0.035 0.011 0.053 0.017s0.035 0.012 0.054 0.016c0.037 0.007 0.075 0.011 0.112 0.011s0.075-0.004 0.112-0.011c0.019-0.004 0.036-0.011 0.055-0.016s0.035-0.009 0.053-0.016c0.022-0.009 0.043-0.022 0.063-0.033 0.012-0.007 0.024-0.011 0.035-0.019 0.032-0.021 0.062-0.046 0.089-0.073l3.296-3.296c0.224-0.225 0.224-0.589 0-0.813s-0.589-0.225-0.813-0z"></path>
<path d="M15.938 2.884c-7.318 0-13.272 5.954-13.272 13.272s5.954 13.272 13.272 13.272c7.318 0 13.272-5.954 13.272-13.272s-5.954-13.272-13.272-13.272zM15.938 28.278c-6.684 0-12.122-5.438-12.122-12.122s5.438-12.122 12.122-12.122 12.122 5.438 12.122 12.122c0 6.684-5.438 12.122-12.122 12.122z"></path>
</symbol>
<symbol id="icon-present" viewBox="0 0 32 32">
<path d="M15.296 5.248v0.448h0.128c0-0.128 0-0.32 0.064-0.448h-0.192zM16.512 5.248c0 0.128 0.064 0.32 0.064 0.448v0.192h0.128c0-0.192 0-0.384 0.064-0.576h-0.256zM21.888 5.248c-0.064 0.064-0.128 0.128-0.192 0.192l0.896 0.896c0.384-0.32 0.704-0.704 0.96-1.088h-1.664z"></path>
<path d="M23.488 5.248c-0.256 0.384-0.576 0.768-0.96 1.088l-0.896-0.896c0.064-0.064 0.128-0.128 0.192-0.192h-5.12c-0.064 0.192-0.064 0.448-0.064 0.576h-0.128v-0.128c0-0.128 0-0.32-0.064-0.448h0.256c0.192-0.768 0.768-1.792 1.856-2.624s2.368-1.28 3.264-1.152c0.448 0.064 0.704 0.192 0.96 0.512 0.448 0.64 0.192 2.048-0.96 3.264h1.664c0.96-1.408 1.152-3.008 0.384-4.032-0.384-0.512-1.024-0.896-1.792-1.024-1.28-0.192-2.88 0.32-4.224 1.408-0.768 0.576-1.408 1.344-1.856 2.112-0.448-0.768-1.088-1.536-1.856-2.112-1.344-1.024-2.944-1.6-4.224-1.408-0.768 0.128-1.344 0.448-1.792 0.96-0.832 1.024-0.64 2.624 0.32 4.032h-8.128v8.384h2.24v18.432h26.816v-18.368h2.24v-8.384h-8.128zM15.296 30.784h-11.456v-17.152h11.456v17.152zM15.296 12.352h-13.696v-5.824h13.696v5.824zM15.424 5.696h-0.128c0-0.128 0-0.32-0.064-0.448h-5.184c-1.088-1.152-1.472-2.56-0.896-3.264 0.192-0.256 0.512-0.448 0.896-0.512 0.96-0.128 2.24 0.32 3.264 1.152 0.96 0.768 1.664 1.728 1.856 2.624h0.192c0.064 0.128 0.064 0.32 0.064 0.448zM28.096 30.784h-11.52v-17.152h11.52v17.152zM30.336 12.352h-13.76v-5.824h13.76v5.824z"></path>
<path d="M15.232 5.248c0 0.128 0.064 0.32 0.064 0.448h0.128c0-0.128 0-0.32 0.064-0.448h-0.256zM16.512 5.248c0 0.128 0.064 0.32 0.064 0.448l-0.064-0.448z"></path>
<path d="M15.488 5.248c0 0.128-0.064 0.32-0.064 0.448h-0.128c0-0.128 0-0.32-0.064-0.448h0.256z"></path>
<path d="M16.768 5.248c-0.064 0.192-0.064 0.448-0.064 0.576h-0.128v-0.128c0-0.128 0-0.32-0.064-0.448h0.256z"></path>
<path d="M23.488 5.248c-0.256 0.384-0.576 0.768-0.96 1.088l-0.896-0.896c0.064-0.064 0.128-0.128 0.192-0.192h1.664z"></path>
</symbol>
<symbol id="icon-questions" viewBox="0 0 32 32">
<path d="M25.277 5.703h-18.55c-1.964 0.004-3.554 1.594-3.558 3.558v10.63c0.002 1.963 1.592 3.553 3.555 3.555h1.831v5.412c0 0 0 0 0 0 0 0.262 0.213 0.475 0.475 0.475 0.125 0 0.239-0.048 0.323-0.127l-0 0 6.191-5.76h9.73c1.964-0.004 3.554-1.594 3.558-3.558v-10.63c-0.002-1.963-1.592-3.553-3.555-3.555h-0zM27.881 19.888c-0.002 1.439-1.168 2.606-2.607 2.608h-9.917c-0.123 0.002-0.234 0.050-0.317 0.127l0-0-5.535 5.145v-4.797c0-0.262-0.213-0.475-0.475-0.475v0h-2.307c-1.438-0.002-2.603-1.167-2.604-2.604v-10.63c0.002-1.439 1.168-2.606 2.607-2.608h18.551c1.438 0.002 2.603 1.167 2.604 2.604v0z"></path>
<path d="M9.556 15.474c-0.807 0-1.461 0.654-1.461 1.461s0.654 1.461 1.461 1.461c0.807 0 1.461-0.654 1.461-1.461v0c-0.002-0.806-0.655-1.459-1.46-1.461h-0zM9.556 17.448c-0.282 0-0.51-0.228-0.51-0.51s0.228-0.51 0.51-0.51c0.281 0 0.508 0.227 0.51 0.507v0c0 0.282-0.228 0.51-0.51 0.51v0z"></path>
<path d="M13.722 15.474c-0.807 0-1.461 0.654-1.461 1.461s0.654 1.461 1.461 1.461c0.807 0 1.461-0.654 1.461-1.461v0c-0.002-0.806-0.655-1.459-1.46-1.461h-0zM13.722 17.448c-0.282 0-0.51-0.228-0.51-0.51s0.228-0.51 0.51-0.51c0.281 0 0.508 0.227 0.51 0.507v0c0 0.282-0.228 0.51-0.51 0.51v0z"></path>
<path d="M18.192 15.506c-0.092-0.021-0.198-0.033-0.307-0.033-0.807 0-1.461 0.654-1.461 1.461s0.654 1.461 1.461 1.461c0.807 0 1.461-0.654 1.461-1.461 0-0.295-0.088-0.57-0.238-0.8l0.003 0.006c-0.209-0.319-0.532-0.548-0.909-0.632l-0.010-0.002zM18.383 17.042c-0.052 0.231-0.255 0.4-0.498 0.4-0.282 0-0.51-0.228-0.51-0.51s0.228-0.51 0.51-0.51c0.038 0 0.076 0.004 0.112 0.012l-0.003-0.001c0.228 0.054 0.396 0.256 0.396 0.497 0 0.039-0.004 0.078-0.013 0.115l0.001-0.003z"></path>
<path d="M23.157 9.442c-0.152-0.035-0.327-0.055-0.507-0.055-1.311 0-2.373 1.062-2.373 2.373 0 0 0 0.001 0 0.001v-0c0 0.262 0.213 0.475 0.475 0.475s0.475-0.213 0.475-0.475v0c0-0.784 0.636-1.419 1.419-1.419s1.419 0.636 1.419 1.419c0 0.782-0.632 1.416-1.413 1.419h-0c-0.262 0-0.475 0.213-0.475 0.475v0 2.028c0 0.262 0.213 0.475 0.475 0.475s0.475-0.213 0.475-0.475v0-1.584c1.088-0.231 1.892-1.183 1.892-2.324 0-1.13-0.79-2.076-1.848-2.315l-0.016-0.003z"></path>
<path d="M22.653 17.109c-0.262 0-0.475 0.213-0.475 0.475v0 0.634c0 0.262 0.213 0.475 0.475 0.475s0.475-0.213 0.475-0.475v0-0.634c0-0.262-0.213-0.475-0.475-0.475v0z"></path>
</symbol>
</defs>
</svg>
