<svg aria-hidden="true" style="position: absolute; width: 0; height: 0; overflow: hidden;" version="1.1" xmlns="http://www.w3.org/2000/svg" xmlns:xlink="http://www.w3.org/1999/xlink">
<defs>
<symbol id="icon-messenger" viewBox="0 0 32 32">
<path fill="#00b2ff" style="fill: var(--color1, #00b2ff)" d="M0 15.52c0-8.92 6.987-15.52 16-15.52s16 6.6 16 15.52-6.987 15.52-16 15.52c-1.613 0-3.173-0.213-4.627-0.613-0.1-0.028-0.214-0.044-0.333-0.044-0.188 0-0.367 0.041-0.529 0.114l0.008-0.003-3.187 1.4c-0.153 0.070-0.332 0.111-0.521 0.111-0.694 0-1.259-0.553-1.279-1.242l-0-0.002-0.093-2.853c-0.016-0.361-0.177-0.681-0.426-0.906l-0.001-0.001c-3.085-2.791-5.015-6.808-5.015-11.277 0-0.071 0.001-0.143 0.001-0.214l-0 0.011zM11.093 12.6l-4.693 7.467c-0.467 0.707 0.427 1.52 1.093 1l5.053-3.827c0.347-0.267 0.8-0.267 1.16 0l3.733 2.8c1.12 0.84 2.72 0.533 3.467-0.64l4.693-7.467c0.467-0.707-0.427-1.507-1.093-1l-5.053 3.827c-0.333 0.267-0.8 0.267-1.147 0l-3.733-2.8c-0.397-0.303-0.901-0.485-1.447-0.485-0.853 0-1.602 0.445-2.028 1.115l-0.006 0.010z"></path>
</symbol>
<symbol id="icon-facebook-official" viewBox="0 0 24 28">
<path d="M22.672 2c0.734 0 1.328 0.594 1.328 1.328v21.344c0 0.734-0.594 1.328-1.328 1.328h-6.109v-9.297h3.109l0.469-3.625h-3.578v-2.312c0-1.047 0.281-1.75 1.797-1.75l1.906-0.016v-3.234c-0.328-0.047-1.469-0.141-2.781-0.141-2.766 0-4.672 1.687-4.672 4.781v2.672h-3.125v3.625h3.125v9.297h-11.484c-0.734 0-1.328-0.594-1.328-1.328v-21.344c0-0.734 0.594-1.328 1.328-1.328h21.344z"></path>
</symbol>
<symbol id="icon-phone" viewBox="0 0 20 20">
<path d="M11.229 11.229c-1.583 1.582-3.417 3.096-4.142 2.371-1.037-1.037-1.677-1.941-3.965-0.102-2.287 1.838-0.53 3.064 0.475 4.068 1.16 1.16 5.484 0.062 9.758-4.211 4.273-4.274 5.368-8.598 4.207-9.758-1.005-1.006-2.225-2.762-4.063-0.475s-0.936 2.927 0.103 3.965c0.722 0.725-0.791 2.559-2.373 4.142z"></path>
</symbol>
<symbol id="icon-vk1" viewBox="0 0 32 32">
<path d="M29 0h-26c-1.65 0-3 1.35-3 3v26c0 1.65 1.35 3 3 3h26c1.65 0 3-1.35 3-3v-26c0-1.65-1.35-3-3-3zM25.919 22.4l-2.925 0.044c0 0-0.631 0.125-1.456-0.444-1.094-0.75-2.125-2.706-2.931-2.45-0.813 0.256-0.788 2.012-0.788 2.012s0.006 0.375-0.181 0.575c-0.2 0.219-0.6 0.262-0.6 0.262h-1.306c0 0-2.888 0.175-5.431-2.475-2.775-2.887-5.225-8.619-5.225-8.619s-0.144-0.375 0.013-0.556c0.175-0.206 0.644-0.219 0.644-0.219l3.131-0.019c0 0 0.294 0.050 0.506 0.206 0.175 0.125 0.269 0.369 0.269 0.369s0.506 1.281 1.175 2.438c1.306 2.256 1.919 2.75 2.362 2.513 0.644-0.35 0.45-3.194 0.45-3.194s0.012-1.031-0.325-1.488c-0.262-0.356-0.756-0.463-0.969-0.488-0.175-0.025 0.113-0.431 0.488-0.619 0.563-0.275 1.556-0.294 2.731-0.281 0.913 0.006 1.181 0.069 1.538 0.15 1.081 0.262 0.712 1.269 0.712 3.681 0 0.775-0.137 1.863 0.419 2.219 0.238 0.156 0.825 0.025 2.294-2.469 0.694-1.181 1.219-2.569 1.219-2.569s0.113-0.25 0.288-0.356c0.181-0.106 0.425-0.075 0.425-0.075l3.294-0.019c0 0 0.988-0.119 1.15 0.331 0.169 0.469-0.369 1.563-1.712 3.356-2.206 2.944-2.456 2.669-0.619 4.369 1.75 1.625 2.113 2.419 2.175 2.519 0.712 1.2-0.813 1.294-0.813 1.294z"></path>
</symbol>
<symbol id="icon-whatsapp" viewBox="0 0 32 32">
<path d="M27.281 4.65c-2.994-3-6.975-4.65-11.219-4.65-8.738 0-15.85 7.112-15.85 15.856 0 2.794 0.731 5.525 2.119 7.925l-2.25 8.219 8.406-2.206c2.319 1.262 4.925 1.931 7.575 1.931h0.006c0 0 0 0 0 0 8.738 0 15.856-7.113 15.856-15.856 0-4.238-1.65-8.219-4.644-11.219zM16.069 29.050v0c-2.369 0-4.688-0.637-6.713-1.837l-0.481-0.288-4.987 1.306 1.331-4.863-0.313-0.5c-1.325-2.094-2.019-4.519-2.019-7.012 0-7.269 5.912-13.181 13.188-13.181 3.519 0 6.831 1.375 9.319 3.862 2.488 2.494 3.856 5.8 3.856 9.325-0.006 7.275-5.919 13.188-13.181 13.188zM23.294 19.175c-0.394-0.2-2.344-1.156-2.706-1.288s-0.625-0.2-0.894 0.2c-0.262 0.394-1.025 1.288-1.256 1.556-0.231 0.262-0.462 0.3-0.856 0.1s-1.675-0.619-3.188-1.969c-1.175-1.050-1.975-2.35-2.206-2.744s-0.025-0.613 0.175-0.806c0.181-0.175 0.394-0.463 0.594-0.694s0.262-0.394 0.394-0.662c0.131-0.262 0.069-0.494-0.031-0.694s-0.894-2.15-1.219-2.944c-0.319-0.775-0.65-0.669-0.894-0.681-0.231-0.012-0.494-0.012-0.756-0.012s-0.694 0.1-1.056 0.494c-0.363 0.394-1.387 1.356-1.387 3.306s1.419 3.831 1.619 4.1c0.2 0.262 2.794 4.269 6.769 5.981 0.944 0.406 1.681 0.65 2.256 0.837 0.95 0.3 1.813 0.256 2.494 0.156 0.762-0.113 2.344-0.956 2.675-1.881s0.331-1.719 0.231-1.881c-0.094-0.175-0.356-0.275-0.756-0.475z"></path>
</symbol>
<symbol id="icon-instagram" viewBox="0 0 32 32">
<path d="M16 2.881c4.275 0 4.781 0.019 6.462 0.094 1.563 0.069 2.406 0.331 2.969 0.55 0.744 0.288 1.281 0.638 1.837 1.194 0.563 0.563 0.906 1.094 1.2 1.838 0.219 0.563 0.481 1.412 0.55 2.969 0.075 1.688 0.094 2.194 0.094 6.463s-0.019 4.781-0.094 6.463c-0.069 1.563-0.331 2.406-0.55 2.969-0.288 0.744-0.637 1.281-1.194 1.837-0.563 0.563-1.094 0.906-1.837 1.2-0.563 0.219-1.413 0.481-2.969 0.55-1.688 0.075-2.194 0.094-6.463 0.094s-4.781-0.019-6.463-0.094c-1.563-0.069-2.406-0.331-2.969-0.55-0.744-0.288-1.281-0.637-1.838-1.194-0.563-0.563-0.906-1.094-1.2-1.837-0.219-0.563-0.481-1.413-0.55-2.969-0.075-1.688-0.094-2.194-0.094-6.463s0.019-4.781 0.094-6.463c0.069-1.563 0.331-2.406 0.55-2.969 0.288-0.744 0.638-1.281 1.194-1.838 0.563-0.563 1.094-0.906 1.838-1.2 0.563-0.219 1.412-0.481 2.969-0.55 1.681-0.075 2.188-0.094 6.463-0.094zM16 0c-4.344 0-4.887 0.019-6.594 0.094-1.7 0.075-2.869 0.35-3.881 0.744-1.056 0.412-1.95 0.956-2.837 1.85-0.894 0.888-1.438 1.781-1.85 2.831-0.394 1.019-0.669 2.181-0.744 3.881-0.075 1.713-0.094 2.256-0.094 6.6s0.019 4.887 0.094 6.594c0.075 1.7 0.35 2.869 0.744 3.881 0.413 1.056 0.956 1.95 1.85 2.837 0.887 0.887 1.781 1.438 2.831 1.844 1.019 0.394 2.181 0.669 3.881 0.744 1.706 0.075 2.25 0.094 6.594 0.094s4.888-0.019 6.594-0.094c1.7-0.075 2.869-0.35 3.881-0.744 1.050-0.406 1.944-0.956 2.831-1.844s1.438-1.781 1.844-2.831c0.394-1.019 0.669-2.181 0.744-3.881 0.075-1.706 0.094-2.25 0.094-6.594s-0.019-4.887-0.094-6.594c-0.075-1.7-0.35-2.869-0.744-3.881-0.394-1.063-0.938-1.956-1.831-2.844-0.887-0.887-1.781-1.438-2.831-1.844-1.019-0.394-2.181-0.669-3.881-0.744-1.712-0.081-2.256-0.1-6.6-0.1v0z"></path>
<path d="M16 7.781c-4.537 0-8.219 3.681-8.219 8.219s3.681 8.219 8.219 8.219 8.219-3.681 8.219-8.219c0-4.537-3.681-8.219-8.219-8.219zM16 21.331c-2.944 0-5.331-2.387-5.331-5.331s2.387-5.331 5.331-5.331c2.944 0 5.331 2.387 5.331 5.331s-2.387 5.331-5.331 5.331z"></path>
<path d="M26.462 7.456c0 1.060-0.859 1.919-1.919 1.919s-1.919-0.859-1.919-1.919c0-1.060 0.859-1.919 1.919-1.919s1.919 0.859 1.919 1.919z"></path>
</symbol>
</defs>
</svg>
