<?xml version="1.0" standalone="no"?>
<!DOCTYPE svg PUBLIC "-//W3C//DTD SVG 20010904//EN"
 "http://www.w3.org/TR/2001/REC-SVG-20010904/DTD/svg10.dtd">
<svg version="1.0" xmlns="http://www.w3.org/2000/svg"
 width="2052.000000pt" height="2052.000000pt" viewBox="0 0 2052.000000 2052.000000"
 preserveAspectRatio="xMidYMid meet">
<metadata>
Created by potrace 1.11, written by Peter Selinger 2001-2013
</metadata>
<g transform="translate(0.000000,2052.000000) scale(0.100000,-0.100000)"
fill="#000000" stroke="none">
<path d="M1089 13047 c-2 -2 -10 -2083 -9 -2205 0 -30 2 -58 6 -63 3 -5 2 -9
-3 -9 -9 0 -8 -92 1 -115 3 -8 2 -15 -2 -15 -8 0 -6 -166 2 -187 3 -7 1 -15
-4 -18 -5 -3 -5 -18 0 -34 4 -15 5 -33 1 -39 -4 -6 -4 -35 -1 -64 l5 -53 75 1
c222 4 260 10 260 38 0 24 96 249 154 360 85 163 188 308 298 418 54 54 104
98 112 98 8 0 16 4 18 9 6 16 182 109 308 163 108 47 249 90 340 104 19 3 38
8 41 10 15 9 163 18 284 18 146 0 275 -11 333 -28 9 -3 36 -8 60 -11 24 -3 78
-15 120 -26 42 -11 84 -22 92 -24 72 -18 337 -131 360 -155 3 -3 21 -14 40
-24 144 -79 385 -301 500 -460 19 -26 43 -56 53 -67 9 -10 17 -23 17 -28 0 -5
6 -16 13 -23 19 -18 107 -166 107 -178 0 -5 3 -10 8 -10 4 0 12 -10 18 -23 6
-12 24 -47 41 -77 28 -51 42 -77 109 -197 42 -76 94 -173 128 -238 17 -33 33
-62 36 -65 3 -3 18 -30 34 -60 62 -119 119 -227 145 -275 15 -27 54 -101 86
-163 33 -62 72 -134 86 -160 47 -88 106 -197 164 -307 32 -60 66 -121 75 -135
10 -14 17 -27 17 -30 -1 -5 18 -39 105 -188 26 -46 48 -86 48 -89 0 -3 8 -17
19 -31 10 -15 28 -44 40 -64 11 -21 31 -55 43 -75 46 -80 91 -168 224 -433 76
-151 146 -286 155 -300 l17 -25 236 0 c139 0 239 5 244 10 5 6 17 33 27 60 9
28 28 77 40 110 13 33 46 123 75 200 29 77 57 144 61 150 5 5 9 19 9 31 0 13
4 26 10 29 6 3 10 15 10 26 0 10 4 19 8 19 5 0 9 6 9 13 0 11 68 191 135 357
17 41 31 79 33 85 1 5 7 24 14 40 7 17 50 131 97 255 47 124 88 232 91 240 4
8 7 17 8 20 1 3 7 18 13 33 7 16 12 31 12 35 0 7 55 153 70 187 5 11 13 36 19
55 5 19 21 65 34 103 l25 67 17 -37 c10 -21 47 -98 82 -171 34 -74 63 -135 63
-137 0 -2 15 -36 34 -77 18 -40 70 -158 115 -263 45 -104 88 -203 95 -220 22
-47 39 -87 126 -295 68 -162 147 -348 190 -445 5 -11 20 -45 33 -75 13 -30 59
-133 102 -227 l77 -173 197 0 197 0 32 56 c18 31 32 62 32 69 0 7 3 15 8 17 9
4 362 719 362 735 0 3 8 17 19 31 10 15 24 44 30 65 7 20 17 37 22 37 5 0 9 6
9 14 0 8 18 50 39 93 72 145 215 445 217 453 0 3 21 48 46 100 25 52 63 131
83 175 21 44 54 116 75 160 20 44 49 107 65 140 15 33 42 92 60 130 33 70 92
196 145 310 15 33 47 101 70 150 23 50 53 114 66 143 13 28 35 76 48 105 13
28 45 97 71 152 94 199 118 250 119 255 1 3 9 21 18 40 26 55 107 228 140 300
17 36 44 94 60 130 17 36 42 90 55 120 14 30 46 98 71 150 79 167 103 223 96
229 -3 3 -100 6 -216 6 l-211 0 -17 -40 c-17 -39 -59 -129 -116 -250 -15 -33
-28 -62 -29 -65 0 -3 -11 -27 -24 -55 -13 -27 -36 -77 -51 -110 -15 -33 -42
-91 -60 -130 -17 -38 -42 -92 -55 -120 -13 -27 -35 -75 -48 -105 -14 -30 -50
-109 -80 -175 -30 -66 -65 -142 -77 -170 -13 -27 -36 -78 -51 -112 -16 -35
-42 -91 -58 -125 -34 -75 -63 -140 -103 -228 -16 -36 -37 -83 -48 -105 -10
-22 -29 -62 -42 -90 -13 -27 -25 -52 -28 -55 -3 -3 -6 -10 -7 -16 -1 -7 -14
-38 -29 -70 -63 -141 -73 -163 -104 -228 -17 -38 -51 -113 -75 -165 -23 -53
-55 -123 -71 -156 -15 -33 -29 -62 -29 -65 -1 -3 -10 -23 -20 -45 -10 -22 -19
-42 -20 -45 -1 -3 -15 -34 -32 -70 -29 -61 -43 -93 -94 -207 -12 -27 -34 -76
-50 -111 -16 -35 -29 -68 -29 -73 0 -5 -4 -9 -10 -9 -5 0 -10 -7 -10 -16 0 -8
-13 -43 -29 -77 -41 -88 -91 -198 -91 -202 0 -2 -18 -42 -40 -89 -21 -48 -38
-87 -38 -89 1 -1 -5 -15 -14 -32 -15 -27 -59 -122 -63 -135 -8 -30 -31 -80
-36 -80 -4 0 -11 10 -15 23 -4 12 -17 45 -30 74 -13 28 -24 55 -24 58 0 5 -16
44 -55 130 -7 17 -25 59 -38 95 -14 36 -33 83 -43 105 -10 22 -18 42 -19 45 0
3 -11 27 -23 54 -12 27 -22 54 -22 62 0 7 -4 15 -9 18 -5 3 -12 17 -15 31 -4
14 -20 55 -36 91 -17 35 -30 67 -30 69 0 3 -10 27 -21 53 -41 91 -48 107 -54
135 -4 15 -11 27 -16 27 -5 0 -8 3 -7 8 0 4 -3 16 -7 27 -36 88 -139 336 -149
360 -8 17 -26 59 -40 95 -15 36 -31 74 -36 85 -5 11 -44 101 -86 200 -42 99
-82 194 -89 210 -7 17 -48 111 -90 210 -43 99 -88 204 -101 233 -13 29 -24 55
-24 57 0 2 -14 34 -30 70 -16 36 -30 67 -30 69 0 2 -9 25 -21 51 -20 45 -36
50 -43 14 -3 -16 -14 -44 -44 -109 -18 -41 -33 -77 -37 -90 -1 -3 -8 -21 -16
-40 -9 -19 -28 -69 -43 -110 -16 -41 -37 -95 -48 -120 -11 -25 -21 -49 -22
-55 -2 -5 -10 -28 -20 -50 -10 -22 -19 -48 -21 -58 -2 -9 -7 -23 -12 -30 -4
-6 -8 -14 -9 -17 -4 -24 -18 -67 -24 -75 -3 -5 -14 -30 -23 -55 -29 -82 -128
-355 -137 -375 -4 -11 -27 -72 -50 -135 -77 -212 -101 -275 -110 -295 -7 -16
-19 -50 -25 -75 -1 -3 -5 -14 -10 -25 -4 -11 -27 -69 -50 -130 -23 -60 -45
-119 -50 -130 -4 -11 -9 -24 -10 -30 -2 -5 -35 -89 -74 -187 -39 -97 -71 -181
-71 -187 0 -6 -5 -11 -10 -11 -6 0 -9 -3 -8 -7 2 -7 -52 -143 -72 -182 -5 -9
-17 -36 -28 -60 l-19 -45 -54 100 c-30 54 -59 108 -66 119 -7 11 -15 27 -19
35 -4 8 -43 80 -87 160 -44 80 -94 172 -112 205 -18 33 -42 78 -55 100 -12 22
-35 63 -50 90 -15 28 -51 93 -80 145 -87 157 -106 192 -140 255 -18 33 -35 65
-40 70 -4 6 -23 39 -42 75 -20 36 -45 81 -56 100 -12 19 -27 46 -35 60 -26 48
-54 95 -85 145 -56 93 -83 140 -89 158 -3 9 -9 17 -14 17 -5 0 -9 4 -9 9 0 6
-244 445 -279 501 -6 8 -23 40 -39 70 -16 30 -44 82 -62 115 -30 53 -78 143
-138 255 -39 73 -66 117 -115 190 -28 41 -53 77 -56 80 -3 3 -19 23 -36 45
-51 69 -217 228 -318 304 -92 69 -307 206 -307 196 0 -2 -23 9 -50 25 -28 17
-53 30 -55 30 -3 0 -28 11 -57 24 -184 85 -428 155 -603 172 -255 24 -523 18
-700 -16 -27 -5 -59 -11 -70 -13 -11 -2 -27 -7 -35 -10 -8 -4 -26 -8 -40 -11
-91 -16 -322 -115 -442 -188 -54 -33 -201 -135 -249 -173 -14 -11 -36 -27 -49
-35 -21 -14 -79 -58 -110 -83 -73 -59 -139 -106 -142 -100 -2 5 -3 411 -3 904
l1 896 -203 1 c-112 1 -204 1 -204 -1z"/>
<path d="M319 12363 c0 -4 0 -30 0 -58 2 -89 1 -139 -4 -143 -2 -2 0 -14 4
-26 4 -11 5 -32 1 -46 -3 -14 -3 -42 1 -62 3 -21 2 -39 -2 -40 -5 -2 -5 -8 -1
-15 7 -11 28 -14 85 -13 9 0 59 0 110 0 50 0 101 1 112 3 11 2 32 1 46 -3 25
-7 52 0 50 14 -1 3 -1 9 0 14 3 34 0 112 -5 121 -4 5 -2 12 3 16 6 3 7 15 2
28 -4 12 -4 36 -1 52 3 17 3 40 -1 52 -5 12 -4 25 1 28 5 3 6 15 1 28 -4 12
-6 28 -4 35 5 13 -16 15 -132 12 -33 0 -64 -1 -70 -1 -5 -1 -41 0 -78 1 -37 2
-70 0 -74 -3 -3 -4 -14 -2 -24 4 -11 5 -19 6 -20 2z"/>
<path d="M329 11701 c0 -97 0 -485 0 -862 l-1 -687 40 -73 c22 -41 123 -240
226 -444 222 -442 298 -586 324 -613 6 -7 12 -20 12 -28 0 -8 4 -14 9 -14 5 0
11 -8 15 -17 3 -10 18 -40 34 -68 56 -100 115 -201 130 -225 9 -14 16 -28 15
-31 -1 -4 7 -15 17 -24 11 -10 20 -22 20 -27 0 -14 131 -205 199 -291 151
-190 376 -381 594 -504 60 -33 263 -133 271 -133 3 0 17 -5 33 -12 15 -6 30
-12 33 -13 11 -4 46 -17 68 -26 28 -11 187 -56 222 -63 14 -2 32 -7 40 -10 8
-3 31 -7 50 -10 19 -3 46 -8 60 -11 14 -3 43 -7 65 -10 22 -3 64 -9 93 -14 58
-9 309 -7 382 3 37 5 232 44 304 61 191 44 518 187 701 306 234 152 427 328
591 539 66 85 105 142 181 264 69 112 68 105 4 186 -20 24 -41 51 -48 60 -7 8
-37 46 -68 83 -30 38 -55 73 -55 78 0 30 -34 -6 -105 -107 -43 -63 -86 -122
-95 -132 -8 -9 -42 -53 -74 -97 -188 -254 -527 -501 -936 -682 -61 -28 -255
-93 -288 -97 -15 -2 -34 -6 -42 -10 -8 -3 -31 -8 -50 -10 -19 -3 -35 -5 -35
-6 0 -13 -346 -18 -435 -7 -102 14 -201 35 -250 54 -8 4 -17 7 -20 8 -139 35
-332 137 -510 269 -91 68 -350 316 -350 336 0 5 -8 17 -18 27 -27 26 -102 130
-102 142 0 5 -3 11 -7 13 -12 5 -126 185 -195 308 -14 25 -35 63 -48 85 -25
44 -50 89 -100 180 -18 33 -41 74 -50 90 -20 37 -115 212 -152 280 -58 110
-287 572 -294 595 -5 14 -8 371 -9 795 l0 770 -198 1 -197 1 -1 -176z"/>
<path d="M13615 9504 c-10 -4 -12 -2005 -2 -2021 3 -5 65 -8 139 -8 l133 0 2
353 c1 195 3 356 6 358 2 2 165 -157 361 -355 l358 -359 175 -1 c97 0 180 2
185 5 7 5 -321 342 -679 698 -35 35 -63 66 -63 70 0 4 58 66 129 139 349 356
469 482 466 486 -2 2 -69 3 -149 3 l-145 1 -43 -45 c-24 -25 -152 -157 -285
-294 -133 -137 -256 -264 -273 -282 -17 -19 -34 -31 -37 -29 -2 3 -5 293 -4
645 l0 641 -132 -1 c-73 0 -136 -2 -142 -4z"/>
<path d="M331 8335 l0 -835 22 -1 c56 -3 363 -5 373 -2 7 3 10 162 10 501 l-1
497 -41 70 c-23 39 -51 86 -61 105 -11 19 -48 82 -82 138 -33 57 -61 106 -61
110 0 3 -6 13 -14 21 -7 9 -24 36 -37 61 -13 25 -27 47 -30 50 -5 5 -22 36
-53 97 -6 13 -14 23 -18 23 -4 0 -7 -376 -7 -835z"/>
<path d="M19131 9038 c1 -197 0 -208 -15 -202 -20 8 -106 10 -106 3 0 -4 -14
-4 -31 0 -17 3 -62 4 -100 1 -38 -3 -69 -2 -69 1 0 4 -14 4 -32 0 l-32 -7 1
-84 c1 -47 2 -88 2 -92 1 -4 84 -7 186 -7 102 1 188 -1 191 -4 3 -2 5 -178 6
-389 0 -212 4 -409 9 -438 47 -295 192 -381 635 -373 82 1 165 4 184 6 19 3
65 8 103 12 l67 7 1 44 c0 24 1 62 1 84 0 69 0 69 -24 64 -25 -5 -58 -11 -128
-20 -83 -11 -295 -13 -349 -3 -111 21 -191 78 -209 149 -5 22 -9 215 -9 449
l0 410 306 0 c168 0 322 0 342 0 l35 1 0 91 c-1 83 -3 93 -21 99 -11 4 -24 5
-28 3 -5 -3 -28 -5 -50 -4 -145 6 -387 5 -387 -1 0 -4 -12 -3 -27 1 -16 4 -40
4 -55 0 -16 -4 -28 -4 -28 -1 0 4 -20 6 -44 5 l-45 -2 1 147 1 147 -141 3
-142 3 1 -103z"/>
<path d="M10628 8905 c-2 -1 -32 -5 -68 -9 -219 -20 -363 -105 -508 -301 -17
-23 -56 -115 -75 -175 -15 -51 -20 -101 -23 -227 -2 -89 0 -174 5 -190 5 -15
14 -53 21 -83 51 -217 248 -406 471 -453 104 -22 178 -34 183 -30 2 2 46 5 97
7 252 10 442 115 561 308 36 59 74 147 82 191 3 12 5 22 6 22 13 0 19 297 8
375 -12 77 -38 154 -86 248 -26 50 -135 166 -192 202 -53 34 -190 94 -198 86
-2 -3 -16 0 -30 5 -14 6 -49 12 -76 14 -97 9 -175 13 -178 10z m223 -232 c80
-38 130 -86 174 -166 37 -69 70 -170 61 -192 -3 -8 -1 -17 4 -20 8 -5 6 -254
-2 -285 -3 -8 -8 -31 -12 -50 -5 -19 -11 -39 -14 -45 -4 -5 -7 -16 -8 -23 -8
-52 -152 -221 -176 -206 -4 3 -8 2 -8 -3 0 -8 -34 -25 -80 -39 -43 -13 -183
-11 -230 3 -25 8 -47 14 -50 14 -39 7 -180 125 -180 152 0 5 -8 21 -18 35 -62
93 -84 322 -49 512 1 8 6 21 11 28 4 7 6 16 3 19 -9 8 71 155 101 186 81 86
171 118 313 113 83 -2 105 -7 160 -33z"/>
<path d="M12788 8905 c-2 -2 -25 -6 -53 -9 -140 -15 -269 -80 -378 -188 -43
-43 -80 -78 -82 -78 -1 0 -2 56 -1 123 l1 124 -140 -1 -140 -1 -2 -697 -2
-698 62 -1 c101 -1 211 2 216 6 2 2 3 203 3 447 0 512 -10 461 114 577 68 63
165 130 197 135 7 1 17 4 22 8 9 5 28 10 100 25 34 7 150 6 180 -1 11 -2 22
-5 25 -5 3 -1 5 -45 5 -98 l0 -98 105 0 105 0 2 198 c1 172 -2 201 -19 196 -2
0 -15 4 -29 9 -33 13 -282 36 -291 27z"/>
<path d="M15836 8903 c-1 -1 -17 -5 -36 -8 -19 -3 -51 -8 -70 -12 -19 -3 -36
-6 -37 -5 -2 1 -39 -14 -83 -33 -166 -71 -282 -193 -351 -368 -21 -52 -23 -60
-35 -127 -4 -19 -8 -44 -10 -55 -8 -43 -5 -214 6 -280 13 -82 48 -193 69 -217
8 -10 11 -18 7 -18 -4 0 6 -18 23 -39 17 -21 31 -42 31 -46 0 -11 101 -104
148 -137 86 -59 207 -101 330 -112 35 -4 66 -7 70 -7 4 -1 9 -1 12 0 3 1 43 3
90 5 250 11 441 117 558 310 30 49 86 186 77 186 -3 0 0 11 5 25 10 25 20 103
24 187 4 74 -13 206 -36 283 -22 76 -75 185 -89 185 -5 0 -9 6 -9 13 0 12
-104 116 -151 153 -24 18 -143 74 -167 79 -13 2 -33 7 -45 11 -24 8 -40 11
-102 20 -38 5 -224 11 -229 7z m239 -211 c59 -20 105 -50 150 -99 59 -63 67
-74 80 -113 1 -3 7 -18 14 -35 7 -16 14 -34 15 -40 2 -5 6 -21 10 -35 42 -158
11 -440 -61 -549 -56 -85 -139 -151 -218 -172 -95 -26 -249 -13 -326 27 -95
49 -185 181 -213 314 -18 84 -17 297 1 369 45 179 134 287 271 332 68 22 214
23 277 1z"/>
<path d="M17076 8872 c-16 -4 -17 -38 -13 -555 3 -484 5 -558 20 -601 62 -180
191 -267 399 -269 84 0 172 8 189 18 5 4 18 8 29 10 73 14 210 111 277 197 25
32 47 58 49 58 1 0 2 -53 2 -118 -1 -65 1 -123 4 -128 4 -5 66 -9 140 -9 l133
0 2 698 2 697 -32 1 c-37 1 -190 1 -227 0 l-26 -1 1 -452 0 -452 -25 -30 c-98
-120 -234 -218 -335 -242 -61 -14 -165 -6 -207 16 -46 24 -60 36 -77 68 -34
64 -39 113 -41 409 -1 164 -1 304 -1 311 0 13 1 133 0 155 0 6 1 42 2 80 1 37
-1 70 -4 73 -3 4 -2 14 3 23 19 36 -3 43 -127 45 -66 0 -127 -1 -137 -2z"/>
</g>
</svg>
