<?xml version="1.0" encoding="utf-8"?>
<!-- Generator: Adobe Illustrator 24.1.2, SVG Export Plug-In . SVG Version: 6.00 Build 0)  -->
<svg version="1.1" xmlns="http://www.w3.org/2000/svg" xmlns:xlink="http://www.w3.org/1999/xlink" x="0px" y="0px"
	 viewBox="0 0 513 161" style="enable-background:new 0 0 513 161;" xml:space="preserve">
<style type="text/css">
	.st0{display:none;}
	.st1{display:inline;}
	.st2{fill:#4D4D4D;}
	.st3{display:inline;fill:#4D4D4D;}
	.st4{fill:#2E37AA;}
	.st5{display:inline;fill:#2E37AA;}
	.st6{display:inline;fill:#2E3192;}
</style>
<g id="Layer_1" class="st0">
	<g class="st1">
		<path d="M-89.1,491.7c1.9-3.7,3.8-7.3,5.6-10.9c3.2-6.6,8.2-11.8,14.3-15.2c11.3-6.4,20.9-8.7,33.8-5.6c12,2.9,20.7,9.8,27.2,19.4
			c5.3,7.8,9.4,16.4,14.1,24.6c5.9,10.3,10.4,21.3,16.7,31.4c4.5,7.3,8,15.2,11.7,22.3c4.3,0,7.7,0,12.2,0
			c6.3-17.2,13.6-34.4,20-53.1c8.8,18.1,15.4,36,23.4,53c3.6,0,6.7,0,9.8,0c0.8-1.1,1.7-1.9,2.1-2.9c4.7-10,9.2-20,14-29.9
			c2.7-5.6,6.4-10.8,8.4-16.6c3.6-10.8,9.4-20.5,13.8-30.9c4-9.6,8.7-18.9,13.5-29c-4.2,0-7.5,0-10.9,0c-8,17.4-16,34.7-24,52
			c-1.7,3.7-4.2,7-5.4,10.8c-3.9,12-11.2,22.4-15.1,35.2c-9.8-23.8-19.3-46.5-29.6-70.2c-9.9,23-16.6,45.8-26.5,68.1
			c-1.1-2-1.9-3.2-2.5-4.4c-1.9-3.8-3.4-8-5.9-11.5c-5.3-7.3-8.7-15.6-13.3-23.3c-6.1-10.2-11.8-20.6-17.4-31.1
			c-4.9-9.2-12.4-15.7-21.4-20.3c-5.4-2.8-11.6-5-17.6-5.7c-11.8-1.3-23.2,0.5-33.7,6.7c-2.1,1.2-4.4,2.2-6.4,3.5
			c-2.1,1.5-3.9,3.3-6.6,5.7c0-16,0-30.7,0-45.4c-3.6,0-6.9,0-10.3,0c0,19,0.2,37.6-0.1,56.1C-95.4,481.6-92.9,486.7-89.1,491.7z
			 M-114.1,494.5c0.8,0.8,2.2,1.7,2.8,2.9c3.7,6.9,7,14,10.9,20.7c5.5,9.2,10.1,19.1,18.6,26.3c9.5,8,20.4,12.3,32.7,13.6
			c6.6,0.7,12.8-2.3,17.5-2c8.9-2.6,15.6-6.3,21.5-11c6.3-4.9,9.7-12.1,14.7-19.1c-2-3.8-4.1-7.8-6.3-11.9c-1.3,1.3-2.8,2.1-2.8,2.9
			c0,4.6-3.2,7.4-5.3,10.9c-7.8,12.7-19.7,18.3-33.8,19.5c-12.4,1-23.1-3.7-32.2-12.4c-6.2-5.9-10.1-13.1-14.2-20.3
			c-3.9-6.8-7.3-13.8-11-20.7c-0.7-1.2-2-2-3.3-3.3c0-14,0-28.1,0-42.3c-3.4,0-6.5,0-9.9,0C-114.1,463.7-114.1,479-114.1,494.5z
			 M-103.9,557.7c0-8.9,0-17,0-24.9c-3.3-5.7-6.5-11.1-10.1-17.3c0,14.5,0,28.3,0,42.2C-110.7,557.7-107.6,557.7-103.9,557.7z"/>
		<path class="st2" d="M-89.1,491.7c-3.7-5-6.2-10.2-6.1-16.8c0.3-18.6,0.1-37.1,0.1-56.1c3.3,0,6.7,0,10.3,0c0,14.7,0,29.4,0,45.4
			c2.7-2.4,4.5-4.2,6.6-5.7c2-1.4,4.3-2.3,6.4-3.5c10.4-6.2,21.9-8.1,33.7-6.7c6,0.7,12.2,2.9,17.6,5.7c9,4.6,16.5,11.1,21.4,20.3
			c5.6,10.5,11.4,20.9,17.4,31.1c4.6,7.7,8,16,13.3,23.3c2.5,3.4,3.9,7.6,5.9,11.5c0.6,1.2,1.3,2.4,2.5,4.4
			c9.9-22.3,16.6-45.1,26.5-68.1c10.3,23.6,19.8,46.4,29.6,70.2c3.9-12.8,11.2-23.2,15.1-35.2c1.2-3.8,3.7-7.2,5.4-10.8
			c8-17.3,16-34.6,24-52c3.4,0,6.7,0,10.9,0c-4.7,10.1-9.4,19.4-13.5,29c-4.3,10.4-10.2,20.1-13.8,30.9c-1.9,5.8-5.7,11-8.4,16.6
			c-4.8,9.9-9.3,19.9-14,29.9c-0.5,1-1.3,1.8-2.1,2.9c-3.1,0-6.2,0-9.8,0c-8-16.9-14.6-34.9-23.4-53c-6.4,18.7-13.7,35.9-20,53.1
			c-4.5,0-8,0-12.2,0c-3.7-7.2-7.2-15-11.7-22.3c-6.2-10.1-10.8-21.1-16.7-31.4c-4.7-8.2-8.8-16.8-14.1-24.6
			c-6.4-9.5-15.1-16.5-27.2-19.4c-12.9-3.1-22.5-0.8-33.8,5.6c-6.1,3.5-11.2,8.6-14.3,15.2C-85.3,484.5-87.2,488-89.1,491.7z"/>
		<path class="st2" d="M-114.1,494.5c0-15.5,0-30.8,0-46.3c3.4,0,6.5,0,9.9,0c0,14.2,0,28.4,0,42.3c1.3,1.2,2.6,2.1,3.3,3.3
			c3.7,6.8,7.1,13.9,11,20.7c4.1,7.2,8,14.4,14.2,20.3c9.2,8.8,19.9,13.4,32.2,12.4c14-1.1,26-6.8,33.8-19.5
			c2.1-3.5,5.3-6.3,5.3-10.9c0-0.8,1.5-1.6,2.8-2.9c2.2,4.2,4.3,8.2,6.3,11.9c-4.9,7-8.4,14.2-14.7,19.1c-6,4.7-12.6,8.4-21.5,11
			c-4.7-0.3-10.8,2.7-17.5,2c-12.3-1.3-23.2-5.6-32.7-13.6c-8.5-7.1-13.1-17-18.6-26.3c-4-6.7-7.2-13.8-10.9-20.7
			C-111.9,496.2-113.2,495.3-114.1,494.5z"/>
		<path class="st2" d="M-103.9,557.7c-3.7,0-6.8,0-10.1,0c0-13.9,0-27.7,0-42.2c3.6,6.2,6.8,11.7,10.1,17.3
			C-103.9,540.7-103.9,548.8-103.9,557.7z"/>
	</g>
</g>
<g id="Layer_2" class="st0">
	<g class="st1">
		<path class="st2" d="M8.7,293.3c-4.7,10.1-32.9,70.9-35.6,76.4c-4.8,9.9-15.3,31.7-16.2,32.8h-9.8c-8-17-14.6-34.9-23.4-53
			c-6.5,18.7-13.7,35.9-20,53.1h-12.2c-3.7-7.2-7.2-15-11.7-22.3c-6.2-10.2-25.5-48.3-30.8-56c-6.4-9.5-15.1-16.5-27.2-19.4
			c-12.9-3.1-23.5-1.8-34.8,4.6c-11.1,5.5-16.9,24.1-16.9,24.1l-8.2,0.4l0-14.1c0,0,0.1-37.2,0.1-56.1h10.3v45.4
			c2.7-2.4,11.8-9,13.9-10.2c10.4-6.2,20.9-7.1,32.7-5.8c6,0.7,12.2,2.9,17.6,5.7c9,4.6,16.5,11.1,21.4,20.3
			c5.6,10.5,11.4,20.9,17.5,31.1c4.5,7.7,20.5,37.1,21.6,39.1c9.9-22.3,16.7-45.1,26.5-68.1c10.3,23.6,19.8,46.4,29.6,70.2
			c4.8-11.4,36.5-80.7,44.5-98.1H8.7z"/>
		<path class="st2" d="M-137,370.7c-4,7.3-9.4,14.2-15.7,19.1c-6,4.7-12.6,8.4-21.5,11c-4.8,1.2-10.8,2.7-17.5,2
			c-12.3-1.3-23.2-5.6-32.7-13.6c-8.5-7.1-13.1-17-18.6-26.3c-4-6.7-12.9-25.8-13.8-26.6v-43.3h9.9v38.3
			c0.9,3.5,10.4,21.2,14.3,27.9c4.1,7.2,8,14.4,14.2,20.3c9.2,8.8,19.9,13.4,32.3,12.4c14-1.1,30.1-12.1,35.8-19.5s7.1-9.8,7.1-9.8
			C-140,367-139,368-137,370.7z"/>
		<path class="st2" d="M-246.6,402.6c-3.7,0-6.8,0-10.1,0c0-13.9,0-27.7,0-42.2c3.6,6.2,6.8,11.7,10.1,17.3
			C-246.6,385.6-246.6,393.7-246.6,402.6z"/>
	</g>
	<rect x="-257" y="281" class="st3" width="10" height="10"/>
	<g class="st1">
		<path class="st4" d="M-214.8,542.6l-8.2,0.4l0-14.1c0,0,0.1-37.1,0.1-56.1c3.3,0,6.7,0,10.3,0c0,14.7,0,29.4,0,45.4
			c2.7-2.4,11.8-9,13.9-10.2c10.4-6.2,20.9-7.1,32.7-5.7c6,0.7,12.2,2.9,17.6,5.7c9,4.6,16.5,11.1,21.4,20.3
			c5.6,10.5,11.4,20.9,17.4,31.1c4.6,7.7,20.5,37.1,21.6,39.1c9.9-22.3,16.6-45.1,26.5-68.1c10.3,23.6,19.8,46.4,29.6,70.2
			c4.8-11.4,36.5-80.7,44.5-98.1c3.4,0,6.7,0,10.9,0c-4.7,10.1-32.9,70.9-35.6,76.4c-4.8,9.9-15.3,31.7-16.1,32.8
			c-3.1,0-6.2,0-9.8,0c-8-16.9-14.6-34.9-23.4-53c-6.4,18.7-13.7,35.9-20,53.1c-4.5,0-8,0-12.2,0c-3.7-7.2-7.2-15-11.7-22.3
			c-6.2-10.1-25.5-48.2-30.8-56c-6.4-9.5-15.1-16.5-27.2-19.4c-12.9-3.1-23.5-1.8-34.8,4.6C-209,524-214.8,542.6-214.8,542.6z"/>
		<path class="st4" d="M-135.4,581.6c-5.6,7.4-21.7,18.3-35.8,19.5c-12.4,1-23.1-3.7-32.2-12.4c-6.2-5.9-10.1-13.1-14.2-20.3
			c-3.9-6.8-13.4-24.4-14.3-27.9c0-14,0-24.1,0-38.3c-3.4,0-6.5,0-9.9,0c0,15.5,0,27.8,0,43.3c0.8,0.8,9.8,19.9,13.8,26.6
			c5.5,9.2,10.1,19.1,18.6,26.3c9.5,8,20.4,12.3,32.7,13.6c6.6,0.7,12.7-0.8,17.5-2c8.9-2.6,15.6-6.3,21.5-11
			c6.3-4.9,11.7-11.8,15.7-19.1c-2-2.7-3-3.7-6.3-7.9C-128.2,571.8-129.7,574.3-135.4,581.6z"/>
		<path class="st4" d="M-231.6,611.6c-3.7,0-6.8,0-10.1,0c0-13.9,0-27.7,0-42.2c3.6,6.2,6.8,11.7,10.1,17.3
			C-231.6,594.6-231.6,602.7-231.6,611.6z"/>
	</g>
	<rect x="-242" y="473" class="st5" width="10" height="22"/>
	<rect x="446" y="381" class="st6" width="63" height="73"/>
</g>
<g id="Layer_3" class="st0">
	<g class="st1">
		<path class="st2" d="M15.2,372.3c-3.2-3.3-7.7-4.9-13.3-4.9c-5.6,0-10.1,1.6-13.3,4.9c-3.3,3.3-4.9,7.7-4.9,13.4
			c0,5.7,1.6,10.2,4.8,13.4c3.2,3.3,7.7,4.9,13.3,4.9s10.1-1.6,13.3-4.9c3.2-3.3,4.9-7.7,4.9-13.4C20,380,18.4,375.5,15.2,372.3z
			 M9.7,395.6c-1.9,2.4-4.5,3.6-7.9,3.6c-3.4,0-6-1.2-7.9-3.6c-1.9-2.4-2.8-5.7-2.8-9.9c0-4.2,1-7.5,2.8-9.9
			c1.9-2.4,4.5-3.6,7.9-3.6c3.4,0,6,1.2,7.9,3.6c1.9,2.4,2.8,5.7,2.8,9.9C12.5,389.9,11.6,393.2,9.7,395.6z"/>
		<path class="st2" d="M63.2,368.2v9.9h-5.3v-4.9c-1-0.2-2-0.3-2.8-0.3c-2.7,0-5,0.6-7,1.7c-2,1.1-4.1,3-6.3,5.7v22.7h-7v-34.9h7
			v6.6c3.5-4.9,8.3-7.3,14.3-7.3C58.1,367.4,60.5,367.7,63.2,368.2z"/>
		<path class="st2" d="M90.6,383.9l15.3-15.7h-7.6l-16.2,16.7l18.2,18.3h9.4L90.6,383.9z"/>
		<rect x="75.2" y="352.3" class="st2" width="7" height="50.8"/>
		<path class="st2" d="M146.7,372.3c-3.2-3.3-7.7-4.9-13.3-4.9c-5.6,0-10.1,1.6-13.3,4.9c-3.2,3.3-4.9,7.7-4.9,13.4
			c0,5.7,1.6,10.2,4.9,13.4c3.2,3.3,7.7,4.9,13.3,4.9c5.7,0,10.1-1.6,13.3-4.9c3.2-3.3,4.9-7.7,4.9-13.4
			C151.6,380,150,375.5,146.7,372.3z M141.3,395.6c-1.9,2.4-4.5,3.6-7.9,3.6s-6-1.2-7.9-3.6c-1.9-2.4-2.8-5.7-2.8-9.9
			c0-4.2,1-7.5,2.8-9.9c1.9-2.4,4.5-3.6,7.9-3.6s6,1.2,7.9,3.6c1.9,2.4,2.8,5.7,2.8,9.9C144.1,389.9,143.2,393.2,141.3,395.6z"/>
		<path class="st2" d="M192.7,368.2v34.9h-7v-6.6c-3.2,4.9-7.6,7.4-13.2,7.4c-7.3,0-11-3.9-11-11.8v-23.9h7v22.2
			c0,2.7,0.5,4.7,1.4,5.8c0.9,1.1,2.5,1.7,4.7,1.7c3.5,0,7.2-2.3,11-6.9v-22.8H192.7z"/>
		<path class="st2" d="M238.3,398.3v4.8c-3.5,0.6-6.9,0.8-10.2,0.8c-5.7,0-9.6-0.9-11.7-2.8c-2.1-1.9-3.1-5.4-3.1-10.5v-16.9h-9.6
			V369h9.6v-7.5h7v7.5h17.1v4.8h-17.1v17.9c0,2,0.1,3.4,0.4,4.1s0.9,1.4,1.8,2c1.6,1,4,1.5,7,1.5
			C232.5,399.2,235.4,398.9,238.3,398.3z"/>
	</g>
	<text transform="matrix(1.1049 0 0 1 -5.1133 612.1172)" class="st3" style="font-family:'LucidaConsole'; font-size:65.8693px;">orkout</text>
</g>
<g id="Layer_4">
	<g>
		<path class="st2" d="M273.7,40.3c-4.7,10.1-32.9,70.9-35.6,76.4c-4.8,9.9-15.3,31.7-16.2,32.8h-9.8c-8-17-14.6-34.9-23.4-53
			c-6.5,18.7-13.7,35.9-20,53.1h-12.2c-3.7-7.2-7.2-15-11.7-22.3c-6.2-10.2-25.5-48.3-30.8-56c-6.4-9.5-15.1-16.5-27.2-19.4
			c-12.9-3.1-23.5-1.8-34.8,4.6C41,62,35.2,80.6,35.2,80.6L27,81l0-14.1c0,0,0.1-37.2,0.1-56.1h10.3v45.4c2.7-2.4,11.8-9,13.9-10.2
			c10.4-6.2,20.9-7.1,32.7-5.8c6,0.7,12.2,2.9,17.6,5.7c9,4.6,16.5,11.1,21.4,20.3c5.6,10.5,11.4,20.9,17.5,31.1
			c4.5,7.7,20.5,37.1,21.6,39.1c9.9-22.3,16.7-45.1,26.5-68.1c10.3,23.6,19.8,46.4,29.6,70.2c4.8-11.4,36.5-80.7,44.5-98.1H273.7z"
			/>
		<path class="st2" d="M128,117.7c-4,7.3-9.4,14.2-15.7,19.1c-6,4.7-12.6,8.4-21.5,11c-4.8,1.2-10.8,2.7-17.5,2
			c-12.3-1.3-23.2-5.6-32.7-13.6c-8.5-7.1-13.1-17-18.6-26.3c-4-6.7-12.9-25.8-13.8-26.6V40.1h9.9v38.3C19,82,28.6,99.6,32.4,106.4
			c4.1,7.2,8,14.4,14.2,20.3c9.2,8.8,19.9,13.4,32.3,12.4c14-1.1,30.1-12.1,35.8-19.5s7.1-9.8,7.1-9.8C125,114,126,115,128,117.7z"
			/>
		<path class="st2" d="M18.4,149.6c-3.7,0-6.8,0-10.1,0c0-13.9,0-27.7,0-42.2c3.6,6.2,6.8,11.7,10.1,17.3
			C18.4,132.6,18.4,140.7,18.4,149.6z"/>
	</g>
	<rect x="8" y="28" class="st2" width="10" height="10"/>
	<g>
		<path class="st2" d="M280.2,119.3c-3.2-3.3-7.7-4.9-13.3-4.9c-5.6,0-10.1,1.6-13.3,4.9c-3.3,3.3-4.9,7.7-4.9,13.4
			c0,5.7,1.6,10.2,4.8,13.4c3.2,3.3,7.7,4.9,13.3,4.9s10.1-1.6,13.3-4.9c3.2-3.3,4.9-7.7,4.9-13.4C285,127,283.4,122.5,280.2,119.3z
			 M274.7,142.6c-1.9,2.4-4.5,3.6-7.9,3.6c-3.4,0-6-1.2-7.9-3.6c-1.9-2.4-2.8-5.7-2.8-9.9c0-4.2,1-7.5,2.8-9.9
			c1.9-2.4,4.5-3.6,7.9-3.6c3.4,0,6,1.2,7.9,3.6c1.9,2.4,2.8,5.7,2.8,9.9C277.5,136.9,276.6,140.2,274.7,142.6z"/>
		<path class="st2" d="M328.2,115.2v9.9h-5.3v-4.9c-1-0.2-2-0.3-2.8-0.3c-2.7,0-5,0.6-7,1.7c-2,1.1-4.1,3-6.3,5.7v22.7h-7v-34.9h7
			v6.6c3.5-4.9,8.3-7.3,14.3-7.3C323.1,114.4,325.5,114.7,328.2,115.2z"/>
		<path class="st2" d="M355.6,130.9l15.3-15.7h-7.6l-16.2,16.7l18.2,18.3h9.4L355.6,130.9z"/>
		<rect x="340.2" y="99.3" class="st2" width="7" height="50.8"/>
		<path class="st2" d="M411.7,119.3c-3.2-3.3-7.7-4.9-13.3-4.9c-5.6,0-10.1,1.6-13.3,4.9c-3.2,3.3-4.9,7.7-4.9,13.4
			c0,5.7,1.6,10.2,4.9,13.4c3.2,3.3,7.7,4.9,13.3,4.9c5.7,0,10.1-1.6,13.3-4.9c3.2-3.3,4.9-7.7,4.9-13.4
			C416.6,127,415,122.5,411.7,119.3z M406.3,142.6c-1.9,2.4-4.5,3.6-7.9,3.6s-6-1.2-7.9-3.6c-1.9-2.4-2.8-5.7-2.8-9.9
			c0-4.2,1-7.5,2.8-9.9c1.9-2.4,4.5-3.6,7.9-3.6s6,1.2,7.9,3.6c1.9,2.4,2.8,5.7,2.8,9.9C409.1,136.9,408.2,140.2,406.3,142.6z"/>
		<path class="st2" d="M457.7,115.2v34.9h-7v-6.6c-3.2,4.9-7.6,7.4-13.2,7.4c-7.3,0-11-3.9-11-11.8v-23.9h7v22.2
			c0,2.7,0.5,4.7,1.4,5.8c0.9,1.1,2.5,1.7,4.7,1.7c3.5,0,7.2-2.3,11-6.9v-22.8H457.7z"/>
		<path class="st2" d="M503.3,145.3v4.8c-3.5,0.6-6.9,0.8-10.2,0.8c-5.7,0-9.6-0.9-11.7-2.8c-2.1-1.9-3.1-5.4-3.1-10.5v-16.9h-9.6
			V116h9.6v-7.5h7v7.5h17.1v4.8h-17.1v17.9c0,2,0.1,3.4,0.4,4.1s0.9,1.4,1.8,2c1.6,1,4,1.5,7,1.5
			C497.5,146.2,500.4,145.9,503.3,145.3z"/>
	</g>
</g>
</svg>
